# xmcd
# 
# Track frame offsets:
#     183
#     22578
#     42763
#     60578
#     77748
#     95803
#     113698
#     132630
#     149798
#     167428
#     182830
#     199478
#     215838
#     232248
#     248390
#     265943
#     280730
#     295108
#     303530
# 
# Disc length: 4258
# 
# Revision: 20
# Processed by: cddbd v1.5.2PL0 Copyright (c) Steve Scherf et al.
# Submitted via: fre:ac v1.0.31
# 
DISCID=1e10a013
DTITLE=Various Artist - Just The Best Vol. 6 - CD2
DYEAR=1995
DGENRE=Pop
TTITLE0=Little Steven feat. Bon Jovi - The Time Of Your Life
TTITLE1=H-Blockx - Little Girl (Video Version)
TTITLE2=Marque - Something In My Eyes (Radio Edit)
TTITLE3=Haddaway - Lover Be Thy Name
TTITLE4=Urban Cookie Collective - So Beautiful (Eat Me Edit)
TTITLE5=C and C Music Factory feat. A.S.K., M.E. and Vic Black - I'll Always Be Around (Radio Mix)
TTITLE6=Skee-Lo - I Wish (Radio Edit)
TTITLE7=M-People - Love Rendezvous (Radio Mix)
TTITLE8=Alex Party - Wrap Me Up (Radio Edit)
TTITLE9=Pizzaman - Happiness (Eat Me Edit)
TTITLE10=E-Rotic - Willy Use A Billy ... Boy (Radio Edit)
TTITLE11=Charly Lownoise and Mental Theo - Stars (Video Mix)
TTITLE12=Raver's Nature - Bring Me Noise (Shortmix)
TTITLE13=Perplexer - Love Is In The Air (Video Edit)
TTITLE14=F1 - The Race Must Go On (Radio Mix)
TTITLE15=Just Friends - Ever And Ever (Radio Mix)
TTITLE16=Gompie - Life ? You Nerver Saw My Wife ! (Always Look On The Bright Side Of Life)
TTITLE17=Die Doofen Wigald Boning and Olli Dittrich - Jesus
TTITLE18=Fred Feuerstein - Yappadappadu (Radio Edit)
EXTD=YEAR: 1995
EXTT0=
EXTT1=
EXTT2=
EXTT3=
EXTT4=
EXTT5=
EXTT6=
EXTT7=
EXTT8=
EXTT9=
EXTT10=
EXTT11=
EXTT12=
EXTT13=
EXTT14=
EXTT15=
EXTT16=
EXTT17=
EXTT18=
PLAYORDER=
